<?xml version="1.0" encoding="utf-8"?>
<!-- Generator: Adobe Illustrator 18.1.1, SVG Export Plug-In . SVG Version: 6.00 Build 0)  -->
<svg version="1.1" id="Layer_1" xmlns="http://www.w3.org/2000/svg" xmlns:xlink="http://www.w3.org/1999/xlink" x="0px" y="0px"
	 width="1464.1px" height="527.4px" viewBox="268 -231.8 1464.1 527.4" enable-background="new 268 -231.8 1464.1 527.4"
	 xml:space="preserve">
<g>
	<path fill="#365CD6" d="M948.3-152.9c4.9,1.9,9.6,4.6,14,8.4l-11.4,13.6c-3-2.3-6-4.1-8.9-5.3c-2.9-1.2-6.1-1.8-9.4-1.8
		c-6.8,0-12.2,2.9-16.2,8.6c-4,5.8-5.9,14.7-5.9,26.7c0,11.8,2,20.6,5.9,26.3c4,5.7,9.5,8.6,16.5,8.6c3.7,0,7.1-0.7,10.1-2.1
		c3-1.4,6.3-3.4,9.8-6.1l10.7,13.8c-3.8,3.8-8.4,6.9-13.9,9.4c-5.4,2.4-11.4,3.7-18,3.7c-9.4,0-17.5-2.1-24.5-6.2
		c-6.9-4.1-12.3-10.2-16.2-18.2c-3.9-8.1-5.8-17.8-5.8-29.1c0-11,2-20.6,5.9-28.6c4-8,9.4-14.1,16.4-18.2c7-4.2,14.9-6.2,23.8-6.2
		C937.7-155.7,943.3-154.8,948.3-152.9"/>
	<polygon fill="#365CD6" points="1043,-153.2 1040.5,-136 1004.8,-136 1004.8,-111.7 1036,-111.7 1036,-94.9 1004.8,-94.9 
		1004.8,-68.9 1043,-68.9 1043,-51.6 980.7,-51.6 980.7,-153.2 	"/>
	<path fill="#365CD6" d="M1097.8-90.5h-9.4v38.8h-24v-101.6h33.3c13.9,0,24.3,2.5,31.3,7.6c7,5.1,10.5,12.9,10.5,23.3
		c0,6.5-1.6,12-4.7,16.3c-3.1,4.3-8.1,8-14.8,11.1l25.8,43.2h-27.1L1097.8-90.5z M1088.5-107h10.1c5.4,0,9.4-1.2,12.1-3.7
		c2.7-2.4,4-6.3,4-11.6c0-4.9-1.4-8.5-4.3-10.7c-2.9-2.2-7.3-3.4-13.3-3.4h-8.6V-107z"/>
	<polygon fill="#365CD6" points="1236.2,-153.2 1207.9,-51.6 1178,-51.6 1148.7,-153.2 1174.1,-153.2 1193.4,-70.4 1211.6,-153.2 	
		"/>
	<polygon fill="#365CD6" points="1312.6,-153.2 1310.1,-136 1274.3,-136 1274.3,-111.7 1305.5,-111.7 1305.5,-94.9 1274.3,-94.9 
		1274.3,-68.9 1312.6,-68.9 1312.6,-51.6 1250.3,-51.6 1250.3,-153.2 	"/>
	<path fill="#365CD6" d="M1390.3-152.9c4.9,1.9,9.6,4.6,14,8.4l-11.4,13.6c-3-2.3-6-4.1-8.9-5.3c-2.9-1.2-6.1-1.8-9.4-1.8
		c-6.8,0-12.2,2.9-16.2,8.6c-4,5.8-5.9,14.7-5.9,26.7c0,11.8,2,20.6,5.9,26.3c4,5.7,9.5,8.6,16.5,8.6c3.7,0,7.1-0.7,10.1-2.1
		c3-1.4,6.3-3.4,9.8-6.1l10.7,13.8c-3.8,3.8-8.4,6.9-13.9,9.4c-5.4,2.4-11.4,3.7-18,3.7c-9.4,0-17.5-2.1-24.5-6.2
		c-6.9-4.1-12.3-10.2-16.2-18.2c-3.9-8.1-5.8-17.8-5.8-29.1c0-11,2-20.6,5.9-28.6c4-8,9.4-14.1,16.4-18.2c7-4.2,14.9-6.2,23.8-6.2
		C1379.7-155.7,1385.4-154.8,1390.3-152.9"/>
	<polygon fill="#365CD6" points="1485.1,-153.2 1482.6,-136 1446.8,-136 1446.8,-111.7 1478,-111.7 1478,-94.9 1446.8,-94.9 
		1446.8,-68.9 1485.1,-68.9 1485.1,-51.6 1422.8,-51.6 1422.8,-153.2 	"/>
	<path fill="#365CD6" d="M1539.9-90.5h-9.4v38.8h-24v-101.6h33.3c13.9,0,24.3,2.5,31.3,7.6c7,5.1,10.5,12.9,10.5,23.3
		c0,6.5-1.6,12-4.7,16.3c-3.1,4.3-8.1,8-14.8,11.1l25.8,43.2h-27.1L1539.9-90.5z M1530.5-107h10.1c5.4,0,9.4-1.2,12.1-3.7
		c2.7-2.4,4-6.3,4-11.6c0-4.9-1.4-8.5-4.3-10.7c-2.9-2.2-7.3-3.4-13.3-3.4h-8.6V-107z"/>
	<path fill="#365CD6" d="M1627.3-191.7l8.6,17.3l-35.2,12.8l-5.9-11.7L1627.3-191.7z M1627.6-51.6h-24v-101.6h24V-51.6z"/>
	<path fill="#365CD6" d="M1706.6-51.6l-5.3-21.8h-29.6l-5.1,21.8h-24.9l30.6-101.6h29.2l30.6,101.6H1706.6z M1675.8-90.9h21.4
		l-10.7-44.9L1675.8-90.9z"/>
	<polygon fill="#365CD6" points="968.4,-10.7 935.9,52.8 935.9,90.9 911.8,90.9 911.8,52.9 879.3,-10.7 905.5,-10.7 924.3,34 
		943.1,-10.7 	"/>
	<path fill="#365CD6" d="M1125.7,90.9h-23.6l-1.8-39.7c-0.5-9.5-0.7-17.9-0.7-25.4c0-5.7,0.1-11,0.4-16.1l-15.7,70.5h-22.7
		l-16.7-70.5c0.6,8.5,0.9,16.5,0.9,24c0,5.7-0.1,11.6-0.4,17.7l-1.8,39.4h-23.5l7.6-101.6h30.3l15.2,68.9l14.2-68.9h30.5
		L1125.7,90.9z"/>
	<path fill="#365CD6" d="M1200.1,90.9l-5.3-21.8h-29.6l-5.1,21.8h-24.9l30.6-101.6h29.2l30.6,101.6H1200.1z M1169.4,51.6h21.4
		l-10.7-44.9L1169.4,51.6z"/>
	<polygon fill="#365CD6" points="1263.8,-10.7 1263.8,71.8 1303.3,71.8 1300.8,90.9 1239.7,90.9 1239.7,-10.7 	"/>
	<polygon fill="#365CD6" points="1377.2,-10.7 1374.9,7.8 1349.8,7.8 1349.8,90.9 1325.8,90.9 1325.8,7.8 1299.5,7.8 1299.5,-10.7 	
		"/>
	<polygon fill="#365CD6" points="1455.8,-10.7 1453.3,6.5 1417.5,6.5 1417.5,30.8 1448.7,30.8 1448.7,47.7 1417.5,47.7 1417.5,73.6 
		1455.8,73.6 1455.8,90.9 1393.5,90.9 1393.5,-10.7 	"/>
	<path fill="#365CD6" d="M1510.6,52.1h-9.4v38.8h-24V-10.7h33.3c13.9,0,24.3,2.5,31.3,7.6c7,5.1,10.5,12.9,10.5,23.3
		c0,6.5-1.6,12-4.7,16.3c-3.1,4.3-8.1,8-14.8,11.1l25.8,43.2h-27.1L1510.6,52.1z M1501.2,35.5h10.1c5.4,0,9.4-1.2,12.1-3.7
		c2.7-2.4,4-6.3,4-11.6c0-4.9-1.4-8.5-4.3-10.7c-2.9-2.2-7.3-3.4-13.3-3.4h-8.6V35.5z"/>
	<path fill="#365CD6" d="M1597.9-49.2l8.6,17.3l-35.2,12.8l-5.9-11.7L1597.9-49.2z M1598.2,90.9h-24V-10.7h24V90.9z"/>
	<path fill="#365CD6" d="M1677.2,90.9l-5.3-21.8h-29.6l-5.1,21.8h-24.9l30.6-101.6h29.2l30.6,101.6H1677.2z M1646.5,51.6h21.4
		l-10.7-44.9L1646.5,51.6z"/>
	<path fill="#365CD6" d="M977.4,237.5l-8.4,10.7c-11.3-10.1-20.1-13.3-38.3-13.3c-24.8,0-41.9-17.9-41.9-51.6
		c0-33.3,17.3-52.5,42.2-52.5c25.1,0,42.2,18.3,42.2,52.3c0,25.4-9.2,38.1-23.6,45.1C961.1,228.3,970,232.1,977.4,237.5 M931,224.6
		c17.6,0,28.7-12,28.7-41.5s-11-41.8-28.7-41.8c-17.3,0-28.7,12.3-28.7,41.9C902.3,212.6,914,224.6,931,224.6"/>
	<path fill="#365CD6" d="M1071.3,201.3c0,19.8-12.3,33.9-34.9,33.9c-22.9,0-34.6-14.1-34.6-33.9v-68.7h12.6v67.7c0,15.8,7,24,22,24
		c15.1,0,22-8.2,22-24v-67.7h12.9V201.3z"/>
	<rect x="1106.6" y="132.6" fill="#365CD6" width="12.6" height="100.8"/>
	<polygon fill="#365CD6" points="1168.6,222.3 1210.3,222.3 1208.8,233.4 1156,233.4 1156,132.6 1168.6,132.6 	"/>
	<path fill="#365CD6" d="M1322.8,233.4h-12.3l-3.8-46.2c-1.5-16-2.6-33.3-2.8-41.8l-22.7,76.4h-11.9l-23.7-76.5
		c-0.1,11.4-1,27.7-2.3,42.7l-3.5,45.4h-12l8.5-100.8h17.3l22.1,74.6l21.1-74.6h17.3L1322.8,233.4z"/>
	<polygon fill="#365CD6" points="1406.1,142.8 1366.4,142.8 1366.4,176.8 1400.8,176.8 1400.8,187.1 1366.4,187.1 1366.4,223.2 
		1408.6,223.2 1408.6,233.4 1353.8,233.4 1353.8,132.6 1407.5,132.6 	"/>
	<path fill="#365CD6" d="M1491.5,142.4l-6.9,7.8c-7.6-6.2-14.7-8.8-23.2-8.8c-10.7,0-18.8,5.1-18.8,15c0,8.9,4.3,13.2,22.4,18.8
		c16.6,5,29.6,11.4,29.6,30.3c0,17.6-13.2,29.8-35.3,29.8c-14.4,0-25.5-4.8-33.9-12.9l7-7.9c7.6,6.3,15.5,10.3,26.7,10.3
		c12.3,0,22.3-6.3,22.3-18.8c0-10.4-5-15-22.3-20.2c-19.8-6-29.6-13.5-29.6-28.9c0-15.1,12.9-25.9,31.2-25.9
		C1474.7,130.8,1483.3,134.9,1491.5,142.4"/>
	<polygon fill="#365CD6" points="653.1,218.5 670.8,221.8 672.5,196.8 651.2,198.6 	"/>
	<polygon fill="#365CD6" points="650,186.7 673,188.6 674.7,163.1 647.9,164.8 	"/>
	<polygon fill="#365CD6" points="680.5,189.2 705.7,191.4 708.7,160.9 678.7,162.8 	"/>
	<path fill="#365CD6" d="M654.8,236.8L654.8,236.8c-0.2,0.2-0.5,0.3-0.7,0.5C654.4,237.1,654.6,237,654.8,236.8"/>
	<polygon fill="#365CD6" points="373.5,193.5 375.1,220 393.1,222.4 393.1,191.9 	"/>
	<polygon fill="#365CD6" points="339.8,186.1 366.4,188.2 368,160.8 337.7,162.8 	"/>
	<polygon fill="#365CD6" points="393,159.2 371.5,160.6 373.2,188.8 393.1,190.4 	"/>
	<path fill="#365CD6" d="M439.4,41.9L439.4,41.9C439.4,41.9,439.4,41.9,439.4,41.9L439.4,41.9z"/>
	<path fill="#365CD6" d="M556.3,135.7c-10.1-5.6-21.4-8.5-33.2-8.5c-18.4,0-35.7,7.2-48.7,20.2c-13,13-20.2,30.3-20.2,48.7
		c0,18.4,7.2,35.7,20.2,48.7c13,13,30.3,20.2,48.7,20.2c11.8,0,23.2-3,33.2-8.5c7.4-3.3,14.2-7.9,20.1-13.8
		c12.4-12.4,19.3-29,19.3-46.6c0-17.6-6.9-34.1-19.3-46.6C570.5,143.6,563.7,139,556.3,135.7 M569.9,243.2
		c-4.5,4.5-9.4,8.3-14.8,11.2c-7.9,3.5-16.4,5.3-25.3,5.3c-16.9,0-32.7-6.6-44.7-18.6c-11.9-12-18.5-28-18.5-45c0-17,6.6-33,18.5-45
		c11.9-12,27.8-18.6,44.7-18.6c8.8,0,17.4,1.8,25.3,5.3c5.4,3,10.3,6.8,14.8,11.2c12.5,12.6,19.4,29.3,19.4,47.1
		C589.2,213.9,582.3,230.6,569.9,243.2"/>
	<path fill="#365CD6" d="M549.4,157.9c-1.2-0.8-2.5-1.4-3.7-2.1l-0.1,0.2c-6.6-3.6-14.1-5.6-21.9-5.6c-12.2,0-23.6,4.7-32.3,13.4
		c-8.6,8.6-13.4,20.1-13.4,32.3s4.7,23.6,13.4,32.3c8.6,8.6,20.1,13.4,32.3,13.4c7.8,0,15.3-1.9,22-5.6c4.9-2.2,9.4-5.2,13.3-9.1
		c8.2-8.2,12.8-19.2,12.8-30.9c0-11.7-4.5-22.6-12.8-30.9C556.1,162.3,552.9,159.9,549.4,157.9 M528.3,154.7
		C528.4,154.7,528.4,154.7,528.3,154.7c5.7,0,11.1,1.1,16.1,3.3l-10,17.4c-1.9-0.9-4-1.6-6.1-2V154.7z M526.5,176.2
		c2.7,0,5.3,0.6,7.7,1.6c1.6,0.9,3.2,2.1,4.5,3.5c2.3,2.4,4,5.3,5,8.4l-14.9,2.4c-0.6-0.5-1.2-0.9-2-1.1l-5.3-14.2
		C523.2,176.4,524.8,176.2,526.5,176.2 M523.1,155v18c-1,0-1.9,0.2-2.9,0.3L519,170l0.4,3.5c-1,0.2-2,0.5-2.9,0.8l-8.3-14.3
		C512.8,157.4,517.9,155.7,523.1,155 M499.4,166.8c1.4-1.4,2.9-2.7,4.5-3.9l8,13.8c-1.4,0.9-2.7,1.9-3.8,3.1
		c-0.5,0.5-1.1,1.1-1.5,1.7l-12.8-7.4C495.2,171.4,497.2,169,499.4,166.8 M491.1,178.6l12.5,7.2c-1.1,2.2-1.9,4.7-2.2,7.2h-14
		C487.8,187.9,489.1,183.1,491.1,178.6 M490.8,212.8c-2-4.6-3.2-9.5-3.4-14.6h13.9c0.2,2.6,0.9,5.1,1.9,7.4L490.8,212.8z
		 M499.4,225.4c-2.4-2.4-4.5-5.1-6.2-8l12.7-7.4c0.6,0.8,1.3,1.7,2.1,2.4c1.1,1.1,2.2,2,3.4,2.8l-7.9,13.7
		C502,227.9,500.7,226.7,499.4,225.4 M523.1,237.2c-5.5-0.7-10.7-2.5-15.4-5.3l8.2-14.2c2.3,0.9,4.7,1.4,7.2,1.5V237.2z
		 M512.8,210.2c-3.7-3.8-5.7-8.8-5.7-14.1c0-5.3,2-10.3,5.7-14.1c2-2.1,4.4-3.7,7.1-4.6l1.8,14.9c-1,1-1.6,2.3-1.6,3.8
		c0,2.9,2.4,5.3,5.3,5.3c2.4,0,4.5-1.7,5.1-3.9l14-5c0.2,1.2,0.3,2.4,0.3,3.7c0,5.6-2.1,10.8-5.9,14.8c-1.4,1.4-2.9,2.6-4.5,3.5
		c-2.4,1.1-5,1.6-7.7,1.6C521.3,216,516.5,213.9,512.8,210.2 M544.9,234.1c-5.1,2.2-10.7,3.4-16.4,3.4c0,0-0.1,0-0.1,0v-18.6
		c2.3-0.4,4.5-1.1,6.6-2.2L544.9,234.1C544.9,234,544.9,234.1,544.9,234.1 M554.5,226.8c-1.6,1.6-3.3,3.1-5.2,4.4l-9.9-17.1
		c1-0.7,1.9-1.5,2.8-2.3c0.8-0.8,1.5-1.6,2.1-2.5l16.4,9.5C559,221.6,556.9,224.3,554.5,226.8 M563.2,214.2l-16.3-9.4
		c0.9-2.1,1.5-4.3,1.7-6.6H567C566.8,203.8,565.5,209.2,563.2,214.2 M567,193h-18.5c-0.1-0.6-0.2-1.3-0.4-1.9l10.4-3.8l-11,1.8
		c-0.3-0.9-0.6-1.7-1-2.5l16.3-9.4C565.2,182.1,566.6,187.4,567,193 M543.8,182.2c-0.5-0.6-1-1.2-1.6-1.7c-1-1-2.1-1.9-3.2-2.6
		l9.9-17.1c2,1.4,3.8,3,5.6,4.8c2.2,2.2,4.1,4.6,5.8,7.2L543.8,182.2z"/>
	<path fill="#365CD6" d="M498.1,29.6h1.3c2.3,0,3.3-1,3.3-3.4v-8.7c0-2.2-0.9-3-3.1-3h-1.6c-2.2,0-3.1,0.8-3.1,3v8.7
		C494.8,28.6,495.8,29.6,498.1,29.6"/>
	<path fill="#365CD6" d="M497.8,53.9h2c2.2,0,3-0.8,3-3V40.7c0-2.3-0.9-3.2-3.3-3.2H498c-2.4,0-3.3,0.9-3.3,3.2v10.2
		C494.8,53.1,495.6,53.9,497.8,53.9"/>
	<path fill="#365CD6" d="M600.3,75l-2.8-62.5l0-0.1l-0.1-0.1l-0.6-0.6c-0.2-0.2-0.4-0.4-0.6-0.6c-0.4-0.4-0.9-0.7-1.3-1.1
		c-0.9-0.7-1.9-1.3-2.8-2c0.9,0.7,1.8,1.4,2.6,2.2c0.4,0.4,0.8,0.8,1.2,1.2c0.2,0.2,0.4,0.4,0.6,0.6l0.5,0.5L594.1,75h-29.6H455.6
		V12.5l7.9,54.6h56l2.1-72.9c-1.4,0-2.8-0.1-4.1-0.1c-10.9,0-21.2,1.1-30.7,3.2c-4.6,1-9.1,2.3-13.3,3.9c0.4-0.3,0.8-0.7,1.3-1
		c0.5-0.3,0.9-0.7,1.4-1l1.4-1c3.9-2.6,8-4.8,12.3-6.7c4.3-1.9,8.8-3.5,13.5-4.8c2.3-0.7,4.6-1.2,7-1.7c2.4-0.4,4.7-1,7.1-1.3
		c4.8-0.8,9.6-1.2,14.5-1.6l7.3-0.3c2.4-0.1,4.9-0.1,7.3-0.1c4.9,0,9.8,0.3,14.7,0.8c-4.8-1-9.7-1.7-14.6-2.1
		c-2.5-0.2-4.9-0.4-7.4-0.5l-7.4-0.3c-4.9-0.1-9.9-0.1-14.9,0.3c-2.5,0.1-5,0.4-7.5,0.7c-2.5,0.3-5,0.7-7.4,1.1
		c-9.9,1.8-19.7,4.9-28.8,9.8l-1.7,0.9c-0.6,0.3-1.1,0.7-1.7,1c-1.1,0.7-2.2,1.4-3.3,2.1c-2.1,1.5-4.3,3-6.2,4.8
		c-2,1.7-3.9,3.6-5.7,5.6c-0.9,1-1.8,2.1-2.6,3.2l-0.6,0.8l-0.6,0.9c-0.2,0.3-0.4,0.6-0.6,0.9l-0.3,0.5l-0.2,0.3l-0.1,0.1l-0.1,0.2
		l0.6,62.4h-12.4v32.4H611V75H600.3L600.3,75z M487.6,39.9c0-3.2,0.9-5.4,2.9-6.8c-1.8-1.6-2.7-4.1-2.7-7.3v-8
		c0-3.3,0.9-5.8,2.6-7.6c1.7-1.7,4.3-2.6,7.6-2.6h1.5c3.2,0,5.8,0.9,7.5,2.6c1.8,1.8,2.6,4.3,2.6,7.5v8c0,3.3-0.9,5.7-2.7,7.3
		c1.9,1.4,2.9,3.7,2.9,6.8v10.7c0,3.3-0.9,5.8-2.6,7.6c-1.7,1.7-4.3,2.6-7.6,2.6h-2c-3.3,0-5.8-0.9-7.6-2.6
		c-1.7-1.7-2.6-4.3-2.6-7.6V39.9z M471.4,15.4l2.2-0.3c1.7-0.3,2.3-0.7,3.2-2l1.1-1.6h4.5v47.3h-7V21.3h-4V15.4z M607.8,100.8
		l-157.2-2.6V80.9L598,78.4h2.3v0l7.5-0.1V100.8z"/>
	<path fill="#365CD6" d="M570,53.2h1.9c2.2,0,2.9-0.6,2.9-2.5V19.6c0-1.8-0.7-2.4-2.9-2.4H570c-2.2,0-2.9,0.6-2.9,2.4v31.1
		C567.2,52.6,567.9,53.2,570,53.2"/>
	<path fill="#365CD6" d="M544.8,33.7c1.8,0,3.5-0.5,4.4-1.2V17.6c0-2.2-0.8-3-3-3h-1.5c-2.2,0-3,0.8-3,3v13
		C541.7,32.8,542.5,33.7,544.8,33.7"/>
	<path fill="#365CD6" d="M527,67.1h60.1l2.1-53.8c-2.2-1.8-6.5-4.9-13.2-8C562-1.2,542.9-5,524.2-5.8L527,67.1z M560.8,20.6
		c0-3,0.8-5.3,2.4-6.9c1.6-1.6,4-2.4,6.9-2.4h1.8c3,0,5.3,0.8,6.9,2.4c1.6,1.6,2.4,3.9,2.4,6.9v29.2c0,3-0.8,5.3-2.4,6.9
		c-1.6,1.6-3.9,2.4-6.9,2.4h-1.8c-3,0-5.4-0.8-7-2.4c-1.6-1.6-2.4-3.9-2.4-7V20.6z M534.5,17.7c0-3.3,0.9-5.8,2.6-7.5
		c1.7-1.7,4.3-2.6,7.6-2.6h1.5c3.2,0,5.8,0.9,7.5,2.6c1.8,1.7,2.6,4.3,2.6,7.5v32.9c0,3.3-0.9,5.8-2.6,7.6c-1.7,1.7-4.3,2.6-7.6,2.6
		h-1.5c-3.3,0-5.9-0.8-7.6-2.5c-1.7-1.7-2.6-4.2-2.6-7.4v-7.9h7.1v7.9c0,2.2,0.8,3,3,3h1.5c2.2,0,3-0.8,3-3V39.7
		c-1.6,0.6-3.3,0.9-5,0.9h-0.3c-5.8,0-9.3-3.5-9.3-9.3V17.7z"/>
	<path fill="#365CD6" d="M703.7-140.1c-10.5-10.5-21.8-20-33.8-28.4v-9h26.7v-28.3h-97.5c-5.8,0-12.2-2.8-20.3-6.4
		c-8.7-3.9-19.7-8.7-33.9-11.4h0.8v-8.1h-46v8.1h0.8c-12.3,2.4-22,6.4-30.8,10.2c-9.8,4.1-18.3,7.7-28.1,7.7h-92.8v28.3h26.7v9.7
		c-11.6,8.2-22.6,17.5-32.8,27.8C294.5-91.9,268-27.9,268,40.3s26.5,132.3,74.8,180.5c48.2,48.2,112.3,74.8,180.5,74.8
		s132.3-26.5,180.5-74.8c48.2-48.2,74.8-112.3,74.8-180.5S751.9-91.9,703.7-140.1 M746.7-70.5c1.7,3.7,3.2,7.4,4.7,11.2L293.8-56
		c0.5-1.3,1-2.6,1.5-3.9L746.7-70.5z M442.1-132.6c1.7-0.5,3.4-1.1,5.1-1.6l0.8-0.2l-1.2-3.8c-0.7-2.2-0.4-4.5,0.7-6.5
		c1.2-2.2,3.4-3.8,5.9-4.5c0.8-0.2,1.6-0.3,2.4-0.3c4.2,0,7.8,2.8,8.7,6.7l0.9,3.9c1.2-0.3,2.8-0.6,3.3-0.7
		c3.7-0.8,7.5-1.5,11.3-2.1l0.8-0.1l-0.6-3.9c-0.4-2.2,0.2-4.5,1.5-6.4c1.5-2,3.7-3.3,6.3-3.7c0.4-0.1,0.8-0.1,1.3-0.1
		c4.7,0,8.5,3.4,8.9,7.8l0.4,3.9c1.2-0.1,2.9-0.3,3.4-0.3c3.4-0.3,6.9-0.5,10.3-0.7l2-0.1l-0.2-4c-0.1-2.3,0.7-4.5,2.3-6.2
		c1.7-1.8,4.1-2.8,6.8-2.9c2.6,0,5,1,6.7,2.8c1.6,1.7,2.5,3.9,2.4,6.1l-0.1,4c1.2,0,2.9,0.1,3.4,0.1c3.5,0.1,6.9,0.3,10.3,0.6l2,0.2
		l0.3-4c0.3-4.4,4.3-7.9,8.9-7.9c0.4,0,0.8,0,1.2,0.1c2.6,0.3,4.8,1.6,6.4,3.6c1.4,1.9,2,4.1,1.6,6.4l-0.6,3.9
		c1.2,0.2,2.8,0.4,3.3,0.5c3.4,0.6,6.9,1.2,10.2,1.9l1.9,0.4l0.8-3.9c0.8-4,4.4-6.8,8.7-6.8c0.8,0,1.6,0.1,2.3,0.3
		c2.5,0.6,4.7,2.2,5.9,4.4c1.2,2,1.5,4.4,0.8,6.5l-1.1,3.8c1.2,0.3,2.8,0.8,3.3,0.9c1.9,0.6,3.8,1.1,5.6,1.7v55.7L442.1-77V-132.6z
		 M743.8-76.7l-73.8-0.1v-89.3C701.1-142.8,726.6-112.1,743.8-76.7 M474.2-198.6c12.7-5.4,26.5-17.3,48.5-17.3
		c23.7,0,39.5,7,52.1,12.6c8.8,3.9,16.4,7.3,24.3,7.3h87.6v8.5h-23.9h-1v5h0v105.8l-20.7,0l-4.6-72.7l0-0.5l-0.3-0.2
		c-4.2-3.2-8.7-5.9-13.2-8.3c4.1,2.9,8.1,6,11.6,9.5l-4.6,72.3l-13.5,0v-61.1h-0.1l0-0.1l-0.8-0.3c-2.1-0.7-4.2-1.4-6.3-2.1l-1-0.3
		l0-1c-0.1-7.5-5.6-14.1-13.4-16c-1.5-0.4-3-0.5-4.4-0.5c-5.6,0-10.8,2.6-13.9,7l-1.8,2.6l-0.8-3c-1.7-6.6-7.6-11.6-14.8-12.5
		c-0.7-0.1-1.5-0.1-2.2-0.1c-6.5,0-12.3,3.4-15.1,8.8l-1.5,2.8l-1.1-2.9c-2.5-6.3-9-10.5-16.2-10.5c-7.2,0-13.7,4.3-16.1,10.7
		l-1.1,3l-1.5-2.8c-2.9-5.3-8.6-8.6-15-8.6c-0.8,0-1.6,0.1-2.4,0.2c-7.2,0.9-13.1,6-14.7,12.6l-0.7,3.1l-1.8-2.6
		c-3-4.3-8.2-6.8-13.8-6.8c-1.5,0-3.1,0.2-4.6,0.6c-7.8,2-13.2,8.6-13.2,16.1v1l-1,0.3c-1.1,0.3-2.1,0.7-3.2,1.1l-0.8,0.3l0,0.1
		h-0.1V-77l-14.1,0l-1.6-70.7c4.9-4.2,10.5-8,16.4-11.2c6.4-3.6,13.2-6.7,20.2-9.3c14-5.2,28.7-8.6,43.6-10.6c7.5-1,15-1.6,22.5-1.9
		c7.5-0.3,15.1-0.3,22.7,0.1c15.1,0.8,30.2,2.9,44.9,6.8c-14.5-4.6-29.5-7.5-44.7-8.9c-7.6-0.7-15.2-1.1-22.9-1.1
		c-7.6-0.1-15.3,0.2-22.9,0.8c-15.3,1.3-30.5,4.1-45.2,8.8c-7.4,2.4-14.6,5.3-21.6,8.8c-7,3.5-13.7,7.5-20,12.7l-1.4,1.1l0,2
		L407.4-77l-17.2,0l-5.8-110.6l57.1-2.8C453.4-190.4,463.9-194.2,474.2-198.6 M375.6-165.4V-77l-72.1-0.1
		c-2.8,4.6-5.5,11.5-7.9,16.5C312.3-102.5,340.2-138.6,375.6-165.4 M303.8,139.2L303.8,139.2L303.8,139.2c0.3,0.6,0.6,1.1,0.9,1.7
		C304.4,140.4,304.1,139.8,303.8,139.2 M304.7,141.1c0.9,1.7,1.7,3.3,2.6,5C306.4,144.4,305.6,142.8,304.7,141.1 M307.4,146.2
		c1.2,2.2,2.4,4.5,3.7,6.7C309.8,150.6,308.6,148.4,307.4,146.2 M342.9,196c0.4,0.4,0.8,0.8,1.2,1.3
		C343.6,196.8,343.3,196.4,342.9,196 M344.4,197.6c0.3,0.3,0.6,0.6,0.9,0.9C345,198.2,344.7,197.9,344.4,197.6 M345.6,198.9
		c0.3,0.3,0.7,0.7,1,1C346.3,199.6,345.9,199.2,345.6,198.9 M346.8,200.1c0.4,0.4,0.8,0.8,1.2,1.3
		C347.6,201,347.2,200.5,346.8,200.1 M348.2,201.6c0.4,0.4,0.7,0.7,1.1,1.1C348.9,202.3,348.5,201.9,348.2,201.6 M349.5,202.9
		c0.3,0.3,0.7,0.7,1,1C350.2,203.6,349.9,203.3,349.5,202.9 M350.8,204.2c0.9,0.8,1.7,1.7,2.6,2.5
		C352.5,205.9,351.6,205,350.8,204.2 M353.5,206.8c0.4,0.4,0.8,0.8,1.2,1.1C354.3,207.6,353.9,207.2,353.5,206.8 M354.8,208.1
		c1.3,1.3,2.7,2.5,4.1,3.8C357.5,210.6,356.2,209.4,354.8,208.1 M359,211.9c1.9,1.7,3.7,3.3,5.6,4.9
		C362.7,215.2,360.8,213.6,359,211.9 M377.3,227c1.9,1.4,3.9,2.8,5.8,4.2C381.2,229.8,379.2,228.4,377.3,227 M383.2,231.2
		c3.3,2.3,6.6,4.5,10,6.6C389.7,235.7,386.4,233.4,383.2,231.2 M405.6,245.1c0.7,0.4,1.4,0.8,2.2,1.2l-4.3-102.7l0-0.1l-0.1-0.1
		l-0.6-0.6c-0.2-0.2-0.4-0.4-0.6-0.6c-0.4-0.4-0.9-0.7-1.3-1.1c-0.9-0.7-1.9-1.3-2.8-2c0.9,0.7,1.8,1.4,2.6,2.2
		c0.4,0.4,0.8,0.8,1.2,1.2c0.2,0.2,0.4,0.4,0.6,0.6l0.5,0.5l-0.7,14.9l0,0l0,0l-3.6,82.5c-1.9-1.1-3.7-2.2-5.5-3.4l0-12.9l-15.8,2.1
		c-4.4-3.2-8.6-6.6-12.7-10.1l1.4-22.8l-23.1,1.9c-4.2-4.6-8.2-9.3-12.1-14.2l1.6-18.7L318,164c3.5,5.4,7.2,10.6,11.1,15.6
		c-6.6-8.5-12.6-17.5-18-26.8l22.1,1.4l1.9-21.6l1.9,21.8l31.3,2l1.5-23.8l1.5,24L393,158l0-14.5c-1.5-0.9-16.1-14.3-43.4-15
		c-12.7-0.4-26.3,1.8-34.7,4.1c0.5-0.4,0.9-0.7,1.4-1.1c0.3-0.3,0.7-0.5,1-0.8l1.1-0.7c2.8-1.9,5.9-3.6,9.1-5
		c3.2-1.4,6.5-2.6,9.9-3.5c1.7-0.5,3.4-0.9,5.1-1.3c1.7-0.3,3.5-0.7,5.2-1c3.5-0.6,7.1-0.9,10.7-1.2l5.4-0.3
		c1.8-0.1,3.6-0.1,5.4-0.1c3.6,0,7.2,0.2,10.8,0.6c-3.5-0.7-7.1-1.2-10.7-1.6c-1.8-0.2-3.6-0.3-5.4-0.4l-5.4-0.2
		c-3.6-0.1-7.3-0.1-11,0.2c-1.8,0.1-3.7,0.3-5.5,0.5c-1.8,0.3-3.7,0.5-5.5,0.8c-7.3,1.3-14.5,3.6-21.2,7.2l-1.3,0.7
		c-0.4,0.2-0.8,0.5-1.2,0.7c-0.8,0.5-1.6,1-2.4,1.6c-1.6,1.1-3.1,2.2-4.6,3.5c-1.4,1.2-2.7,2.5-4,3.9c0.3,0.6,0.6,1.3,0.9,1.9
		c-15.7-32.4-24.6-68.7-24.6-107.1c0-29.3,5.1-57.4,14.6-83.4l462.5,4.7c8.4,24.7,12.9,51.2,12.9,78.7c0,45.8-12.6,88.7-34.4,125.3
		c0.5-0.8,1-1.6,1.4-2.4v-9.5c-1.5-0.9-16.1-14.3-43.4-15c-12.7-0.4-26.3,1.8-34.7,4.1c0.5-0.4,0.9-0.7,1.4-1.1
		c0.3-0.3,0.7-0.5,1-0.8l1.1-0.7c2.8-1.9,5.9-3.6,9.1-5c3.2-1.4,6.5-2.6,9.9-3.5c1.7-0.5,3.4-0.9,5.1-1.3c1.7-0.3,3.5-0.7,5.2-1
		c3.5-0.6,7.1-0.9,10.7-1.2l5.4-0.3c1.8-0.1,3.6-0.1,5.4-0.1c3.6,0,7.2,0.2,10.8,0.6c-3.5-0.7-7.1-1.2-10.7-1.6
		c-1.8-0.2-3.6-0.3-5.4-0.4l-5.4-0.2c-3.6-0.1-7.3-0.1-11,0.2c-1.8,0.1-3.7,0.3-5.5,0.5c-1.8,0.3-3.7,0.5-5.5,0.8
		c-7.3,1.3-14.5,3.6-21.2,7.2l-1.3,0.7c-0.4,0.2-0.8,0.5-1.2,0.7c-0.8,0.5-1.6,1-2.4,1.6c-1.6,1.1-3.1,2.2-4.6,3.5
		c-1.5,1.3-2.9,2.6-4.2,4.1c-0.7,0.7-1.3,1.5-1.9,2.3l-0.5,0.6l-0.4,0.6c-0.1,0.2-0.3,0.4-0.4,0.7l-0.2,0.4l-0.1,0.2l-0.1,0.1
		l-0.1,0.2l0.4,104.6c-34.8,19-74.8,29.8-117.3,29.8C480.6,275.1,440.5,264.3,405.6,245.1 M398.6,241.1c0.7,0.4,1.4,0.8,2.1,1.2
		C400.1,242,399.3,241.6,398.6,241.1 M401,242.5c0.7,0.4,1.4,0.8,2,1.2C402.4,243.3,401.7,242.9,401,242.5 M403.3,243.8
		c0.7,0.4,1.4,0.8,2.1,1.1C404.7,244.6,404,244.2,403.3,243.8 M330.8,181.8c-0.6-0.7-1.1-1.4-1.7-2.1
		C329.7,180.4,330.2,181.1,330.8,181.8 M303.8,139.2c-0.3-0.6-0.6-1.3-0.9-1.9C303.2,137.9,303.5,138.6,303.8,139.2 M716.1,181.2
		c-3.9,4.9-7.9,9.7-12.1,14.3c0.4-0.5,0.9-1,1.3-1.4l-24.4,2.1l1.3,20.4c0.5-0.4,1-0.9,1.5-1.3c-4.3,3.7-8.7,7.3-13.2,10.7l0-0.4
		l-16.5,3.1l0.8,8.2c1.7-1.1,3.3-2.2,5-3.3c-2.2,1.5-4.4,2.9-6.6,4.3c0.3-0.2,0.6-0.4,0.9-0.6c-0.3,0.2-0.6,0.4-0.9,0.6l0,0
		c-2.4,1.5-4.9,3-7.4,4.4v0c-0.2,0.1-0.4,0.2-0.5,0.3c0.1-0.1,0.3-0.2,0.4-0.2c-0.1,0.1-0.3,0.2-0.4,0.2c0,0,0-102,0-102l1.4,11.8
		l28.6,1.8l1.4-21.6l1.4,21.8l30.9,2l2.3-23.8l2.3,24l18.6,1.2c-1.5,2.4-3,4.8-4.5,7.1c1.2-1.8,2.4-3.7,3.6-5.5l-17.2,1.1
		L716.1,181.2z M727.7,165.1c-0.3,0.4-0.5,0.8-0.8,1.2C727.2,165.9,727.5,165.5,727.7,165.1 M726.8,166.5c-0.3,0.4-0.5,0.8-0.8,1.2
		C726.3,167.3,726.5,166.9,726.8,166.5 M725.9,167.9c-0.3,0.4-0.5,0.8-0.8,1.2C725.3,168.7,725.6,168.3,725.9,167.9 M725,169.2
		c-1.2,1.8-2.5,3.6-3.8,5.4C722.4,172.8,723.7,171,725,169.2 M721.1,174.6c-0.3,0.4-0.6,0.8-0.9,1.2
		C720.5,175.4,720.8,175,721.1,174.6 M720.1,176c-0.3,0.4-0.6,0.7-0.8,1.1C719.5,176.8,719.8,176.4,720.1,176 M719.1,177.4
		c-0.3,0.4-0.5,0.7-0.8,1.1C718.5,178.1,718.8,177.7,719.1,177.4 M718.1,178.7c-0.3,0.4-0.6,0.7-0.9,1.1
		C717.5,179.4,717.8,179,718.1,178.7 M717.1,179.9c-0.3,0.4-0.6,0.8-1,1.3C716.5,180.8,716.8,180.4,717.1,179.9 M670.6,225.9
		c-2.8,2.1-5.6,4.2-8.5,6.2C664.9,230.1,667.8,228,670.6,225.9 M662,232.1c-0.7,0.5-1.4,1-2.2,1.5
		C660.6,233.1,661.3,232.6,662,232.1 M733.8,155.5c-0.5,0.8-1,1.6-1.5,2.4C732.8,157.1,733.3,156.3,733.8,155.5 M645.3,242.6
		c-0.8,0.4-1.6,0.9-2.3,1.3C643.7,243.5,644.5,243.1,645.3,242.6 M642.9,244c-0.8,0.4-1.6,0.9-2.4,1.3
		C641.3,244.9,642.1,244.4,642.9,244 M694.2,205.6c0.9-0.9,1.9-1.8,2.8-2.8C696.1,203.8,695.1,204.7,694.2,205.6 M683.9,215.1
		c0.5-0.4,0.9-0.8,1.4-1.2C684.8,214.3,684.3,214.7,683.9,215.1 M685.4,213.8c1-0.8,1.9-1.7,2.9-2.6
		C687.3,212.1,686.4,212.9,685.4,213.8 M688.4,211.1c0.4-0.4,0.9-0.8,1.3-1.2C689.3,210.3,688.9,210.7,688.4,211.1 M689.9,209.8
		c0.9-0.9,1.9-1.8,2.8-2.7C691.7,208,690.8,208.9,689.9,209.8 M692.8,207c0.5-0.4,0.9-0.9,1.4-1.3
		C693.7,206.1,693.3,206.5,692.8,207 M701.3,198.4c0.9-1,1.8-1.9,2.7-2.9C703.1,196.5,702.2,197.5,701.3,198.4 M697.1,202.7
		c0.9-0.9,1.8-1.9,2.7-2.8C698.9,200.9,698,201.8,697.1,202.7 M699.9,199.9c0.4-0.5,0.9-0.9,1.3-1.4
		C700.8,199,700.3,199.4,699.9,199.9"/>
	<polygon fill="#365CD6" points="559.9,-92.3 561.2,-103.8 538.3,-102.3 540.5,-92.2 	"/>
	<polygon fill="#365CD6" points="588.3,-92.3 588.3,-105.7 566.2,-104.2 567.5,-92.3 	"/>
	<path fill="#365CD6" d="M594.4-111.7L594.4-111.7l-0.1-0.1l-0.4-0.3c-0.1-0.1-0.2-0.2-0.4-0.3c-0.3-0.2-0.5-0.4-0.8-0.6
		c-0.5-0.4-1.1-0.8-1.7-1.1c0.5,0.4,1,0.8,1.5,1.3c0.2,0.2,0.5,0.5,0.7,0.7c0.1,0.1,0.2,0.2,0.3,0.4l0.3,0.3l-1.9,23.2h-56.3v-25
		l1.1,5.3l24.5,1.1l1.5-13.5c-0.1,0-0.1,0-0.2,0c-7.4-0.2-15.4,1-20.3,2.4c0.3-0.2,0.5-0.4,0.8-0.6c0.2-0.1,0.4-0.3,0.6-0.4l0.6-0.4
		c1.7-1.1,3.5-2.1,5.3-2.9c1.9-0.8,3.8-1.5,5.8-2.1c1-0.3,2-0.5,3-0.8c1-0.2,2-0.4,3.1-0.6c2.1-0.3,4.1-0.5,6.2-0.7l3.2-0.1
		c1.1,0,2.1-0.1,3.2-0.1c2.1,0,4.2,0.1,6.3,0.3c-2.1-0.4-4.2-0.7-6.3-0.9c-1.1-0.1-2.1-0.2-3.2-0.2l-3.2-0.1c-2.1,0-4.3,0-6.4,0.1
		c-1.1,0-2.1,0.2-3.2,0.3c-1.1,0.2-2.1,0.3-3.2,0.5c-4.3,0.8-8.5,2.1-12.4,4.2l-0.7,0.4c-0.2,0.1-0.5,0.3-0.7,0.4
		c-0.5,0.3-0.9,0.6-1.4,0.9c-0.9,0.6-1.8,1.3-2.7,2.1c-0.9,0.7-1.7,1.5-2.5,2.4c-0.4,0.4-0.8,0.9-1.1,1.4l-0.3,0.4l-0.3,0.4
		c-0.1,0.1-0.2,0.3-0.3,0.4l-0.1,0.2l-0.1,0.1l0,0.1l0,0.1l0.3,28.2h59.2h0.2h4.2l-0.1-2.1L594.4-111.7z"/>
	<path fill="#365CD6" d="M565.9-106.9l22.4,1v-6c-0.8-0.5-8.9-7.9-24-8.7L565.9-106.9z"/>
	<polygon fill="#365CD6" points="329.4,78.7 330.9,60.1 310.4,61.4 312.8,79.1 	"/>
	<polygon fill="#365CD6" points="364.2,77.8 365.7,57.9 339.3,59.6 340.7,78.4 	"/>
	<polygon fill="#365CD6" points="332.9,33.9 307,35.5 308.8,49.6 331.6,51.1 	"/>
	<polygon fill="#365CD6" points="393,77 393,56.2 373.8,57.4 375.3,77.5 	"/>
	<polygon fill="#365CD6" points="393,30 371.8,31.4 373.5,53.7 393,55 	"/>
	<polygon fill="#365CD6" points="367.7,31.6 337.3,33.6 338.6,51.5 366.1,53.3 	"/>
	<path fill="#365CD6" d="M403.5,16.2l0-0.1l-0.1-0.1l-0.6-0.6c-0.2-0.2-0.4-0.4-0.6-0.6c-0.4-0.4-0.9-0.7-1.3-1.1
		c-0.9-0.7-1.9-1.3-2.8-2c0.9,0.7,1.8,1.4,2.6,2.2c0.4,0.4,0.8,0.8,1.2,1.2c0.2,0.2,0.4,0.4,0.6,0.6l0.5,0.5l-3.2,71.2h-96.1l0-74.2
		l1.7,9.9l28.3,1.8l1.5-19.7l1.5,19.9l31.5,2l1.7-21.9l1.7,22.2l21.6,1.4V16.1c-1.5-0.9-16.1-14.3-43.4-15
		c-12.7-0.4-26.3,1.8-34.7,4.1c0.5-0.4,0.9-0.7,1.4-1.1c0.3-0.3,0.7-0.5,1-0.8l1.1-0.7c2.8-1.9,5.9-3.6,9.1-5
		c3.2-1.4,6.5-2.6,9.9-3.5c1.7-0.5,3.4-0.9,5.1-1.3c1.7-0.3,3.5-0.7,5.2-1c3.5-0.6,7.1-0.9,10.7-1.2l5.4-0.3
		c1.8-0.1,3.6-0.1,5.4-0.1c3.6,0,7.2,0.2,10.8,0.6c-3.5-0.7-7.1-1.2-10.7-1.6c-1.8-0.2-3.6-0.3-5.4-0.4l-5.4-0.2
		c-3.6-0.1-7.3-0.1-11,0.2c-1.8,0.1-3.7,0.3-5.5,0.5c-1.8,0.3-3.7,0.5-5.5,0.8c-7.3,1.3-14.5,3.6-21.2,7.2l-1.3,0.7
		c-0.4,0.2-0.8,0.5-1.2,0.7c-0.8,0.5-1.6,1-2.4,1.6c-1.6,1.1-3.1,2.2-4.6,3.5c-1.5,1.3-2.9,2.6-4.2,4.1c-0.7,0.7-1.3,1.5-1.9,2.3
		l-0.5,0.6l-0.4,0.6c-0.1,0.2-0.3,0.4-0.4,0.7l-0.2,0.4l-0.1,0.2l-0.1,0.1l-0.1,0.2l0.4,79.6h101.1h0.3h7.1l-0.2-3.6L403.5,16.2z"/>
	<polygon fill="#365CD6" points="482.3,-92.3 483.6,-103.8 460.7,-102.3 462.8,-92.2 	"/>
	<polygon fill="#365CD6" points="510.6,-92.3 510.6,-105.7 488.5,-104.2 489.8,-92.3 	"/>
	<path fill="#365CD6" d="M516.8-111.7L516.8-111.7l-0.1-0.1l-0.4-0.3c-0.1-0.1-0.2-0.2-0.4-0.3c-0.3-0.2-0.5-0.4-0.8-0.6
		c-0.5-0.4-1.1-0.8-1.7-1.1c0.5,0.4,1,0.8,1.5,1.3c0.2,0.2,0.5,0.5,0.7,0.7c0.1,0.1,0.2,0.2,0.3,0.4l0.3,0.3l-1.9,23.2h-56.3v-25
		l1.1,5.3l24.5,1.1l1.5-13.5c-0.1,0-0.1,0-0.2,0c-7.4-0.2-15.4,1-20.3,2.4c0.3-0.2,0.5-0.4,0.8-0.6c0.2-0.1,0.4-0.3,0.6-0.4l0.6-0.4
		c1.7-1.1,3.5-2.1,5.3-2.9c1.9-0.8,3.8-1.5,5.8-2.1c1-0.3,2-0.5,3-0.8c1-0.2,2-0.4,3.1-0.6c2.1-0.3,4.1-0.5,6.2-0.7l3.2-0.1
		c1.1,0,2.1-0.1,3.2-0.1c2.1,0,4.2,0.1,6.3,0.3c-2.1-0.4-4.2-0.7-6.3-0.9c-1.1-0.1-2.1-0.2-3.2-0.2l-3.2-0.1c-2.1,0-4.3,0-6.4,0.1
		c-1.1,0-2.1,0.2-3.2,0.3c-1.1,0.2-2.1,0.3-3.2,0.5c-4.3,0.8-8.5,2.1-12.4,4.2l-0.7,0.4c-0.2,0.1-0.5,0.3-0.7,0.4
		c-0.5,0.3-0.9,0.6-1.4,0.9c-0.9,0.6-1.8,1.3-2.7,2.1c-0.9,0.7-1.7,1.5-2.5,2.4c-0.4,0.4-0.8,0.9-1.1,1.4l-0.3,0.4l-0.3,0.4
		c-0.1,0.1-0.2,0.3-0.3,0.4l-0.1,0.2l-0.1,0.1l0,0.1l0,0.1l0.3,28.2h59.2h0.2h4.2l-0.1-2.1L516.8-111.7z"/>
	<path fill="#365CD6" d="M510.6-111.8c-0.8-0.5-8.9-7.9-24-8.7l1.5,13.7l22.4,1V-111.8z"/>
	<polygon fill="#365CD6" points="671.6,78.7 673.1,60.1 652.6,61.4 655,79.1 	"/>
	<polygon fill="#365CD6" points="706.4,77.8 707.9,57.9 681.5,59.6 682.9,78.4 	"/>
	<polygon fill="#365CD6" points="675.1,33.9 649.2,35.5 651,49.6 673.8,51.1 	"/>
	<polygon fill="#365CD6" points="735.2,77 735.2,56.2 716,57.4 717.5,77.5 	"/>
	<polygon fill="#365CD6" points="735.2,30 714,31.4 715.7,53.7 735.2,55 	"/>
	<polygon fill="#365CD6" points="709.9,31.6 679.5,33.6 680.9,51.5 708.3,53.3 	"/>
	<path fill="#365CD6" d="M741.7,93h0.3h7.1l-0.2-3.6l-3.3-73.2l0-0.1l-0.1-0.1l-0.6-0.6c-0.2-0.2-0.4-0.4-0.6-0.6
		c-0.4-0.4-0.9-0.7-1.3-1.1c-0.9-0.7-1.9-1.3-2.8-2c0.9,0.7,1.8,1.4,2.6,2.2c0.4,0.4,0.8,0.8,1.2,1.2c0.2,0.2,0.4,0.4,0.6,0.6
		l0.5,0.5l-3.2,71.2h-96.1V13.3l1.7,9.9l28.3,1.8l1.5-19.7l1.5,19.9l31.5,2L712,5.3l1.7,22.2l21.6,1.4V16.1
		c-1.5-0.9-16.1-14.3-43.4-15c-12.7-0.4-26.3,1.8-34.7,4.1c0.5-0.4,0.9-0.7,1.4-1.1c0.3-0.3,0.7-0.5,1-0.8l1.1-0.7
		c2.8-1.9,5.9-3.6,9.1-5c3.2-1.4,6.5-2.6,9.9-3.5c1.7-0.5,3.4-0.9,5.1-1.3c1.7-0.3,3.5-0.7,5.2-1c3.5-0.6,7.1-0.9,10.7-1.2l5.4-0.3
		c1.8-0.1,3.6-0.1,5.4-0.1c3.6,0,7.2,0.2,10.8,0.6c-3.5-0.7-7.1-1.2-10.7-1.6c-1.8-0.2-3.6-0.3-5.4-0.4l-5.4-0.2
		c-3.6-0.1-7.3-0.1-11,0.2c-1.8,0.1-3.7,0.3-5.5,0.5c-1.8,0.3-3.7,0.5-5.5,0.8c-7.3,1.3-14.5,3.6-21.2,7.2l-1.3,0.7
		c-0.4,0.2-0.8,0.5-1.2,0.7c-0.8,0.5-1.6,1-2.4,1.6c-1.6,1.1-3.1,2.2-4.6,3.5c-1.5,1.3-2.9,2.6-4.2,4.1c-0.7,0.7-1.3,1.5-1.9,2.3
		l-0.5,0.6l-0.4,0.6c-0.1,0.2-0.3,0.4-0.4,0.7l-0.2,0.4l-0.1,0.2l-0.1,0.1l-0.1,0.2l0.4,79.6H741.7z"/>
</g>
</svg>
