<?xml version="1.0" encoding="UTF-8"?>
<!DOCTYPE svg PUBLIC "-//W3C//DTD SVG 1.1//EN" "http://www.w3.org/Graphics/SVG/1.1/DTD/svg11.dtd">
<!-- Creator: CorelDRAW -->
<svg xmlns="http://www.w3.org/2000/svg" xml:space="preserve" width="350px" height="350px" style="shape-rendering:geometricPrecision; text-rendering:geometricPrecision; image-rendering:optimizeQuality; fill-rule:evenodd; clip-rule:evenodd"
viewBox="0 0 350 350">
 <defs>
  <style type="text/css">
   <![CDATA[
    .fil2 {fill:#F8C300}
    .fil0 {fill:black}
    .fil1 {fill:#06BD55}
    .fil3 {fill:#07BA55}
    .fil4 {fill:#03A8FA;fill-rule:nonzero}
    .fil6 {fill:#F71408;fill-rule:nonzero}
    .fil5 {fill:#F8C300;fill-rule:nonzero}
   ]]>
  </style>
 </defs>
 <g id="Capa_x0020_1">
  <metadata id="CorelCorpID_0Corel-Layer"/>
  <g id="_169549584">
   <rect id="_169597040" class="fil0" x="15.9001" y="13.0567" width="317.605" height="317.605"/>
   <g>
    <g>
     <path id="_169596968" class="fil1" d="M163.106 131.62c29.8525,0 54.0617,23.1698 54.0617,51.7431 0,28.5734 -24.2092,51.7431 -54.0617,51.7431 -29.8537,0 -54.0628,-23.1698 -54.0628,-51.7431 0,-28.5734 24.2092,-51.7431 54.0628,-51.7431zm6.64373 27.6379c13.089,0 23.7048,11.0268 23.7048,24.6261 0,13.5993 -10.6158,24.6273 -23.7048,24.6273 -13.089,0 -23.7048,-11.028 -23.7048,-24.6273 0,-13.5993 10.6158,-24.6261 23.7048,-24.6261z"/>
     <path id="_169488904" class="fil1" d="M151.573 253.174c5.65987,31.4505 41.2195,24.4631 41.2195,0.153544l0 -34.4754 10.7032 -1.86024c9.46894,13.4894 16.33,18.0969 25.8001,31.5875 -1.09961,46.9727 -35.51,51.3735 -53.2325,51.9156 -10.3359,0.315356 -52.7483,2.72127 -63.1656,-47.6577l38.6754 0.336616z"/>
    </g>
    <polygon id="_169488808" class="fil1" points="228.862,130.171 229.292,248.803 200.225,234.722 192.299,153.779 192.675,129.882 "/>
   </g>
   <g>
    <path id="_169488712" class="fil2" d="M192.648 140.026c14.7615,9.23981 24.5198,25.2001 24.5198,43.3372 0,0.190158 -0.00590554,0.377954 -0.00826775,0.568113 -3.32009,-1.65119 -6.33192,-3.60947 -9.03665,-5.87483 -9.8965,-8.29138 -15.2717,-22.845 -15.4749,-38.0305z"/>
    <path id="_169488640" class="fil2" d="M228.915 144.65l0.157087 43.5746c-8.3209,-2.04922 -15.3072,-5.44018 -20.9493,-10.1682 -9.94847,-8.33508 -15.3284,-22.9962 -15.4784,-38.2667l35.6246 0c0.0342521,1.5756 0.264568,3.21852 0.646066,4.86026z"/>
   </g>
   <path id="_169488544" class="fil3" d="M156.053 234.667c-20.3552,-2.54174 -37.1541,-15.9237 -43.8652,-33.8942l40.3159 0c1.07717,1.18701 2.26536,2.26182 3.54923,3.20907l0 30.6852zm-43.2144 -70.3775c5.97759,-14.4142 18.5233,-25.6466 34.0998,-30.3155l0 30.3155 -34.0998 0z"/>
   <path id="_169488472" class="fil4" d="M192.645 139.79l35.6246 0c0.14882,6.77483 3.93073,14.8253 7.63822,18.378 3.70986,3.5575 9.13705,5.32561 16.1859,5.32561 6.2646,0 11.3375,-1.68426 15.215,-5.02207 3.84214,-3.37088 5.78152,-7.78704 5.78152,-13.2485 0,-6.30357 -2.31261,-11.0563 -6.93783,-14.1922 -4.62404,-3.16891 -11.6351,-4.75278 -21.071,-4.75278l-3.28112 0 0 -23.6977 2.64804 0c8.54059,0 14.9174,-1.4504 19.1682,-4.38309 4.2886,-2.93269 6.4146,-7.34885 6.4146,-13.2142 0,-4.989 -1.60394,-8.9339 -4.77286,-11.8323 -3.17009,-2.89962 -7.45869,-4.34884 -12.9414,-4.34884 -6.56342,0 -11.5607,1.58387 -15.0296,4.75278 -3.46773,3.13584 -5.44373,7.98901 -5.96696,14.4957l-35.8395 -0.100394c0.37323,-14.2938 5.55711,-25.317 15.5906,-33.1383 9.99453,-7.78704 24.0533,-11.6977 42.1029,-11.6977 16.3347,0 29.3871,3.47246 39.1218,10.3831 9.7713,6.91066 14.6564,16.1139 14.6564,27.6426 0,6.20318 -1.52953,11.7319 -4.62522,16.6536 -3.0945,4.88742 -7.83074,9.33784 -14.1709,13.2816 7.71972,3.03427 13.5745,7.41618 17.5276,13.1812 3.99096,5.76381 5.96696,12.6745 5.96696,20.7981 0,14.0245 -5.4827,25.1151 -16.4835,33.273 -11.002,8.15791 -25.956,12.2375 -44.8278,12.2375 -18.1985,0 -32.2879,-4.19057 -42.2163,-12.5079 -9.94847,-8.33508 -15.3284,-22.9962 -15.4784,-38.2667z"/>
   <path id="_168924544" class="fil5" d="M192.645 139.79l35.6246 0c0.0342521,1.57796 0.264568,3.22088 0.646066,4.86498l0.157087 43.5699c-8.3209,-2.04922 -15.3072,-5.44018 -20.9493,-10.1682 -9.94847,-8.33508 -15.3284,-22.9962 -15.4784,-38.2667z"/>
   <polygon id="_168924472" class="fil6" points="37.7541,235.675 37.7541,64.9279 153.578,64.9279 153.578,99.9489 76.7507,99.9489 76.7507,130.101 146.938,130.101 146.938,164.29 76.7507,164.29 76.7507,200.773 156.053,200.773 156.053,235.675 "/>
   <path id="_168924400" class="fil5" d="M146.938 133.975l0 30.3143 -34.1009 0c5.9764,-14.4119 18.5233,-25.6466 34.1009,-30.3143zm-34.7541 66.7975l40.3136 0c1.07835,1.18938 2.26773,2.26773 3.55513,3.21498l0 30.6828c-20.3588,-2.53938 -37.16,-15.9249 -43.8687,-33.8978z"/>
  </g>
 </g>
</svg>
